<?xml version="1.0" encoding="utf-8" standalone="no"?>
<!DOCTYPE svg PUBLIC "-//W3C//DTD SVG 1.1//EN"
  "http://www.w3.org/Graphics/SVG/1.1/DTD/svg11.dtd">
<!-- Created with matplotlib (https://matplotlib.org/) -->
<svg height="378pt" version="1.1" viewBox="0 0 648 378" width="648pt" xmlns="http://www.w3.org/2000/svg" xmlns:xlink="http://www.w3.org/1999/xlink">
 <metadata>
  <rdf:RDF xmlns:cc="http://creativecommons.org/ns#" xmlns:dc="http://purl.org/dc/elements/1.1/" xmlns:rdf="http://www.w3.org/1999/02/22-rdf-syntax-ns#">
   <cc:Work>
    <dc:type rdf:resource="http://purl.org/dc/dcmitype/StillImage"/>
    <dc:date>2020-07-26T12:49:12.244851</dc:date>
    <dc:format>image/svg+xml</dc:format>
    <dc:creator>
     <cc:Agent>
      <dc:title>Matplotlib v3.3.0, https://matplotlib.org/</dc:title>
     </cc:Agent>
    </dc:creator>
   </cc:Work>
  </rdf:RDF>
 </metadata>
 <defs>
  <style type="text/css">*{stroke-linecap:butt;stroke-linejoin:round;}</style>
 </defs>
 <g id="figure_1">
  <g id="patch_1">
   <path d="M 0 378 
L 648 378 
L 648 0 
L 0 0 
z
" style="fill:#ffffff;"/>
  </g>
  <g id="axes_1">
   <g id="patch_2">
    <path d="M 28.49125 349.50875 
L 632.04 349.50875 
L 632.04 30.1335 
L 28.49125 30.1335 
z
" style="fill:#ffffff;"/>
   </g>
   <g id="patch_3">
    <path clip-path="url(#p9d53db8d3a)" d="M 110.57388 175.304068 
L 111.574098 175.302207 
L 112.574456 175.306489 
L 113.577099 175.410803 
L 114.76575 175.405999 
L 115.789997 175.349428 
L 116.784738 175.242776 
L 117.779005 175.132674 
L 118.777534 175.053598 
L 119.779163 174.997091 
L 120.776751 174.911165 
L 121.77609 174.837991 
L 122.978696 174.796164 
L 124.050397 174.5446 
L 125.023166 174.30938 
L 125.9917 174.059283 
L 126.958958 173.804703 
L 127.924868 173.54539 
L 128.905492 173.337763 
L 130.757916 172.835938 
L 131.813902 172.394745 
L 132.731397 171.996487 
L 133.64216 171.583538 
L 134.549645 171.163435 
L 135.448219 170.723886 
L 136.342829 170.275688 
L 137.767949 169.594907 
L 138.678577 168.924347 
L 139.512758 168.372707 
L 140.861011 167.442432 
L 141.627778 166.71715 
L 142.401601 166.081425 
L 143.620536 165.119811 
L 144.342469 164.305647 
L 145.013803 163.563672 
L 145.636748 162.774746 
L 146.303988 162.028799 
L 146.968389 161.280097 
L 148.013528 160.067998 
L 148.539686 159.180693 
L 149.01861 158.300476 
L 149.409209 157.364557 
L 150.201798 155.961173 
L 150.450847 155.00839 
L 151.21411 153.195241 
L 151.423039 152.267609 
L 151.919747 150.427019 
L 151.968551 149.490465 
L 152.099959 147.611889 
L 152.071887 146.251847 
L 151.968359 144.848438 
L 151.818486 143.958306 
L 151.52062 142.103782 
L 151.224801 141.273592 
L 150.656974 139.453688 
L 150.261844 138.672449 
L 149.461153 136.875858 
L 148.991657 136.159647 
L 148.455645 135.315431 
L 147.92049 134.470675 
L 147.059766 133.110258 
L 146.493972 132.552951 
L 145.807923 131.825254 
L 145.141293 131.078715 
L 144.462325 130.344146 
L 143.808843 129.584851 
L 142.706797 128.427968 
L 142.022312 127.90684 
L 141.235306 127.289062 
L 139.994167 126.35768 
L 139.246416 125.759488 
L 138.419052 125.197246 
L 137.084212 124.246113 
L 136.271008 123.811242 
L 135.37527 123.365504 
L 134.479145 122.92061 
L 133.583551 122.474559 
L 132.683245 122.038791 
L 131.836385 121.486389 
L 130.468777 120.680105 
L 129.527659 120.373304 
L 128.595931 119.99391 
L 127.653136 119.653391 
L 126.699755 119.350064 
L 125.774617 118.947516 
L 124.8183 118.654501 
L 122.978786 118.107324 
L 121.942373 117.939783 
L 120.958569 117.753519 
L 119.976292 117.556141 
L 118.989088 117.394632 
L 118.012423 117.156402 
L 117.026251 116.987383 
L 116.039208 116.824695 
L 114.856291 116.639551 
L 113.779705 116.511235 
L 112.780416 116.468691 
L 111.781482 116.410613 
L 110.594227 116.344629 
L 109.552417 116.30717 
L 108.552463 116.32061 
L 107.552452 116.331506 
L 106.363912 116.341197 
L 105.260141 116.479875 
L 104.269279 116.614762 
L 103.27896 116.7536 
L 102.291697 116.914679 
L 101.302127 117.058969 
L 100.313339 117.208951 
L 99.32782 117.38273 
L 98.144512 117.565033 
L 97.063505 117.876368 
L 96.115097 118.197165 
L 95.15698 118.483858 
L 94.203169 118.785676 
L 93.252463 119.098403 
L 92.297985 119.397879 
L 90.483008 120.031254 
L 89.52913 120.571299 
L 88.660228 121.075599 
L 87.760908 121.513518 
L 86.89619 122.02695 
L 86.015693 122.505947 
L 85.149366 123.015866 
L 83.734206 123.71838 
L 82.904067 124.291867 
L 82.153371 124.973337 
L 80.856983 125.984268 
L 80.166864 126.703524 
L 79.39313 127.339371 
L 78.174224 128.301025 
L 77.567525 128.973845 
L 76.961162 129.77886 
L 76.289738 130.520748 
L 75.606772 131.251437 
L 74.920126 131.978554 
L 73.834031 133.150914 
L 73.438633 133.882993 
L 72.922756 134.739906 
L 72.414139 135.601398 
L 71.565 136.969121 
L 71.235058 137.769583 
L 70.44964 139.57293 
L 70.230155 140.419323 
L 69.727224 142.258103 
L 69.617366 143.112755 
L 69.349854 144.971665 
L 69.32469 146.294066 
L 69.355321 147.687226 
L 69.485293 148.559059 
L 69.749008 150.418518 
L 69.994167 151.245604 
L 70.51964 153.077828 
L 70.858263 153.879693 
L 71.633769 155.687426 
L 72.091379 156.421079 
L 72.588429 157.289866 
L 73.106084 158.145658 
L 73.950894 159.516111 
L 74.506489 160.129879 
L 75.177537 160.872132 
L 75.860557 161.602769 
L 76.529576 162.34699 
L 77.197484 163.092289 
L 78.280013 164.268108 
L 78.997512 164.80726 
L 79.78092 165.429936 
L 80.988981 166.406358 
L 81.743587 167.025756 
L 82.573453 167.584106 
L 83.903099 168.543317 
L 84.708219 169.09645 
L 85.540495 169.680678 
L 86.432683 170.134161 
L 87.301324 170.63903 
L 88.179098 171.12397 
L 89.0797 171.559092 
L 90.505133 172.23919 
L 91.484267 172.64379 
L 92.429272 172.976544 
L 93.364578 173.343368 
L 94.320391 173.638155 
L 95.26037 173.988565 
L 96.215778 174.284772 
L 98.045365 174.866826 
L 99.135932 175.105704 
L 100.122095 175.274792 
L 101.106338 175.457859 
L 102.095402 175.605832 
L 103.083113 175.763651 
L 104.073917 175.898962 
L 105.067783 176.01198 
L 106.255331 176.163417 
L 107.364439 176.187015 
L 108.365256 176.162657 
L 109.36561 176.158562 
L 110.555512 176.1086 
L 110.57388 175.304068 
z
" style="fill:#ea9999;"/>
   </g>
   <g id="patch_4">
    <path clip-path="url(#p9d53db8d3a)" d="M 163.68617 233.372295 
L 164.686627 233.380899 
L 165.68721 233.395005 
L 166.68918 233.469901 
L 167.878064 233.475288 
L 168.901281 233.410331 
L 169.897225 233.312438 
L 170.89274 233.211422 
L 171.89128 233.132426 
L 172.891554 233.066058 
L 173.889322 232.981439 
L 174.888059 232.903879 
L 176.086049 232.828452 
L 177.153224 232.579581 
L 178.126627 232.346591 
L 179.096767 232.102137 
L 180.06569 231.853406 
L 181.033286 231.600015 
L 182.009945 231.37846 
L 183.863308 230.879934 
L 184.916479 230.441774 
L 185.836154 230.048275 
L 186.749916 229.641871 
L 187.66323 229.234489 
L 188.572241 228.817717 
L 189.477376 228.392485 
L 190.908143 227.724029 
L 191.853921 227.090631 
L 192.688993 226.540377 
L 194.049756 225.629558 
L 194.866579 224.95763 
L 195.650537 224.335704 
L 196.877991 223.385687 
L 197.640573 222.554166 
L 198.31342 221.81366 
L 198.961391 221.049016 
L 199.629674 220.30408 
L 200.295409 219.556673 
L 201.357337 218.360865 
L 201.920707 217.41839 
L 202.404726 216.541386 
L 202.844296 215.636351 
L 203.643248 214.236979 
L 203.95808 213.251331 
L 204.711961 211.434032 
L 204.934195 210.451861 
L 205.420007 208.6081 
L 205.480928 207.616503 
L 205.632207 205.740798 
L 205.594094 204.329966 
L 205.476078 202.907124 
L 205.304501 201.972532 
L 204.98521 200.121104 
L 204.655229 199.249278 
L 204.059268 197.437558 
L 203.613738 196.634681 
L 202.793017 194.846951 
L 202.288496 194.111492 
L 201.735918 193.277723 
L 201.185978 192.442291 
L 200.304934 191.094688 
L 199.680779 190.548876 
L 198.959245 189.855609 
L 198.237142 189.162895 
L 197.52975 188.455906 
L 196.82207 187.749197 
L 195.707038 186.604915 
L 195.025043 186.124237 
L 194.219357 185.531894 
L 192.969903 184.611833 
L 192.186918 184.094869 
L 191.350344 183.546951 
L 189.984939 182.643349 
L 189.204022 182.270695 
L 188.302105 181.838442 
L 187.400699 181.405072 
L 186.500123 180.969892 
L 185.597942 180.538215 
L 184.714999 180.064558 
L 183.310731 179.338272 
L 182.460749 179.07106 
L 181.517455 178.732297 
L 180.57046 178.406533 
L 179.617896 178.100336 
L 178.680778 177.739872 
L 177.726799 177.438646 
L 175.889705 176.882967 
L 174.955863 176.727194 
L 173.972627 176.536796 
L 172.990722 176.33671 
L 172.005226 176.16277 
L 171.027587 175.931629 
L 170.043596 175.74673 
L 169.058899 175.56697 
L 167.87839 175.364294 
L 166.877079 175.232807 
L 165.87829 175.168365 
L 164.879969 175.083415 
L 163.693424 174.986345 
L 162.676791 174.904693 
L 161.676208 174.89054 
L 160.675421 174.867499 
L 159.485716 174.826149 
L 158.423404 174.919144 
L 157.422148 174.978369 
L 156.427296 175.084212 
L 155.42714 175.151444 
L 154.433182 175.263794 
L 153.438592 175.371538 
L 152.442209 175.466234 
L 151.253303 175.607785 
L 150.161571 175.894627 
L 149.192463 176.142707 
L 148.228122 176.407534 
L 147.262923 176.669344 
L 146.298104 176.932493 
L 145.334761 177.200826 
L 143.487743 177.72164 
L 142.438161 178.195962 
L 141.5346 178.624628 
L 140.628636 179.048049 
L 139.729864 179.487166 
L 138.830586 179.925179 
L 137.936562 180.374656 
L 136.511756 181.05612 
L 135.575456 181.674432 
L 134.771533 182.273128 
L 133.434794 183.221307 
L 132.648817 183.913512 
L 131.873063 184.546609 
L 130.654393 185.508584 
L 129.920647 186.305464 
L 129.300423 187.09703 
L 128.641569 187.851115 
L 127.971695 188.594506 
L 127.297602 189.333805 
L 126.22891 190.523049 
L 125.729985 191.433511 
L 125.237933 192.305449 
L 124.759656 193.186075 
L 123.933239 194.568126 
L 123.570098 195.493972 
L 122.812783 197.309752 
L 122.596467 198.270556 
L 122.172742 200.132377 
L 122.09032 201.088602 
L 121.860752 202.952995 
L 121.87698 204.34878 
L 121.96852 205.767496 
L 122.138902 206.693563 
L 122.443288 208.547145 
L 122.736732 209.421379 
L 123.302028 211.242018 
L 123.731129 212.053836 
L 124.568192 213.834337 
L 125.07621 214.569686 
L 125.652248 215.38866 
L 126.206981 216.22107 
L 127.083505 217.571523 
L 127.694597 218.124542 
L 128.408392 218.825318 
L 129.11485 219.533212 
L 129.824807 220.237712 
L 130.53241 220.944496 
L 131.654002 222.082414 
L 132.339999 222.562062 
L 133.150047 223.148466 
L 134.403706 224.062802 
L 135.192788 224.57004 
L 136.032426 225.113194 
L 137.403446 226.008062 
L 138.17851 226.383429 
L 139.069365 226.839822 
L 139.969842 227.275217 
L 140.861869 227.729052 
L 141.754271 228.18207 
L 142.655406 228.616028 
L 144.081652 229.294353 
L 144.915451 229.591743 
L 145.863634 229.913334 
L 146.805246 230.258006 
L 147.758465 230.561904 
L 148.699279 230.90938 
L 149.650586 231.219996 
L 151.476009 231.816677 
L 152.403241 232.045517 
L 153.384432 232.250798 
L 154.360805 232.491152 
L 155.344013 232.681755 
L 156.317903 232.940181 
L 157.298995 233.146183 
L 158.273924 233.397045 
L 159.453064 233.609684 
L 160.490065 233.671144 
L 161.487718 233.785352 
L 162.486236 233.86167 
L 163.672371 233.976682 
L 163.68617 233.372295 
z
" style="fill:#b4a7d6;"/>
   </g>
   <g id="patch_5">
    <path clip-path="url(#p9d53db8d3a)" d="M 298.88109 320.474636 
L 299.881281 320.482287 
L 300.881553 320.496082 
L 301.883158 320.609925 
L 302.883366 320.618935 
L 303.884371 320.68769 
L 304.884678 320.704095 
L 306.063891 320.714635 
L 307.087634 320.691087 
L 308.090856 320.691289 
L 309.091706 320.661891 
L 310.093585 320.645323 
L 311.100153 320.687288 
L 312.100507 320.651699 
L 313.100514 320.611783 
L 314.099286 320.556448 
L 315.097685 320.496467 
L 316.095691 320.431581 
L 317.09799 320.420263 
L 318.096752 320.364811 
L 320.058756 320.235517 
L 321.130397 320.081542 
L 322.117545 319.921681 
L 323.103404 319.754058 
L 324.085759 319.565334 
L 325.066555 319.367223 
L 326.048918 319.178545 
L 327.022203 318.935202 
L 328.006596 318.758752 
L 328.984366 318.542415 
L 329.949213 318.248255 
L 330.926809 318.030869 
L 331.90454 317.814298 
L 333.114239 317.556545 
L 334.115464 317.255071 
L 335.055127 316.898002 
L 336.010729 316.60056 
L 336.965309 316.299295 
L 337.907122 315.950268 
L 338.865066 315.66159 
L 339.814509 315.341108 
L 340.736986 314.919745 
L 341.682877 314.585975 
L 342.608761 314.177359 
L 343.565671 313.884809 
L 344.736332 313.51487 
L 345.618869 313.141921 
L 346.526715 312.714862 
L 347.414337 312.233888 
L 348.330993 311.830316 
L 349.806123 311.203544 
L 350.698209 310.816894 
L 352.26316 310.136348 
L 353.093212 309.679646 
L 353.975236 309.206999 
L 354.857269 308.73437 
L 355.753139 308.290019 
L 356.683603 307.829692 
L 357.463926 307.352682 
L 358.319909 306.835672 
L 359.175726 306.318389 
L 360.544463 305.499583 
L 361.267727 304.967727 
L 362.092187 304.400291 
L 362.906322 303.819111 
L 363.874417 303.166703 
L 364.521987 302.551139 
L 365.25902 301.874762 
L 366.548302 300.671574 
L 367.085967 299.973914 
L 367.770054 299.237665 
L 368.639455 298.133313 
L 369.092652 297.374529 
L 369.594586 296.507389 
L 370.122243 295.521096 
L 370.357393 294.654396 
L 370.853997 292.784377 
L 370.923157 291.424647 
L 371.012808 290.008941 
L 370.937528 289.045755 
L 370.509509 287.158747 
L 370.164039 286.221672 
L 369.779882 285.295801 
L 369.308413 284.281489 
L 368.793495 283.375879 
L 368.205174 282.567004 
L 367.374072 281.433609 
L 366.6346 280.682379 
L 365.951237 279.950547 
L 364.727257 278.679886 
L 363.896856 278.019356 
L 363.159188 277.336368 
L 362.379564 276.709238 
L 361.463469 275.987599 
L 360.560319 275.414287 
L 359.754393 274.814017 
L 358.907517 274.281861 
L 357.55875 273.429839 
L 356.61299 272.920304 
L 355.741243 272.426651 
L 354.84712 271.97873 
L 353.954116 271.528524 
L 353.029312 271.056628 
L 352.051839 270.64252 
L 350.476028 269.988179 
L 349.507194 269.627104 
L 348.56204 269.299506 
L 347.622838 268.95604 
L 346.681619 268.617953 
L 345.168979 268.091181 
L 344.11326 267.824737 
L 343.144006 267.578369 
L 342.165301 267.367354 
L 341.195754 267.122083 
L 340.222146 266.892003 
L 339.245608 266.672882 
L 338.272628 266.440451 
L 337.277556 266.29067 
L 336.285492 266.12963 
L 335.294496 265.964601 
L 334.322355 265.729031 
L 333.10996 265.515218 
L 332.085781 265.41342 
L 331.082471 265.350893 
L 330.087933 265.235539 
L 329.095875 265.105248 
L 328.081999 265.106352 
L 327.071076 265.089672 
L 326.056634 265.094186 
L 325.06122 264.984107 
L 324.065958 264.873112 
L 323.075341 264.734148 
L 322.068307 264.694049 
L 321.076122 264.56452 
L 319.854174 264.380538 
L 318.921192 264.322126 
L 317.92144 264.279036 
L 316.921571 264.237388 
L 315.92311 264.17818 
L 314.923963 264.127527 
L 313.926254 264.058936 
L 312.928471 263.991269 
L 311.930765 263.92264 
L 310.932584 263.85994 
L 309.933329 263.810632 
L 308.93622 263.734557 
L 307.939329 263.655752 
L 305.979579 263.498329 
L 305.046255 263.48397 
L 304.046386 263.467525 
L 303.04654 263.449294 
L 302.046698 263.430766 
L 301.046882 263.410256 
L 300.047282 263.373548 
L 298.868713 263.335724 
L 297.893366 263.33486 
L 296.892882 263.305183 
L 295.892723 263.299864 
L 294.892593 263.296739 
L 293.89206 263.263412 
L 292.891679 263.241458 
L 291.712568 263.238569 
L 290.761753 263.278184 
L 289.761781 263.318545 
L 288.761632 263.356683 
L 287.763358 263.418221 
L 286.763508 263.460103 
L 285.760963 263.468356 
L 284.75507 263.434814 
L 283.756604 263.493969 
L 282.752798 263.486479 
L 281.742404 263.396782 
L 280.73087 263.292847 
L 279.730823 263.332271 
L 277.763286 263.392522 
L 276.745524 263.484485 
L 275.755692 263.628178 
L 274.765193 263.767857 
L 273.759524 263.81618 
L 272.762988 263.919499 
L 271.760649 263.987874 
L 270.770579 264.130136 
L 269.771035 264.215346 
L 268.780724 264.356152 
L 267.784582 264.461847 
L 266.784941 264.546472 
L 265.792994 264.677431 
L 264.566338 264.83306 
L 263.505967 265.099434 
L 262.534225 265.336495 
L 261.56835 265.595505 
L 260.608286 265.876254 
L 259.6452 266.145698 
L 258.681172 266.411617 
L 257.727279 266.715452 
L 256.768152 266.999706 
L 255.821984 267.33244 
L 254.87419 267.659091 
L 253.92023 267.962672 
L 252.766148 268.394634 
L 251.808713 268.847105 
L 250.8795 269.217199 
L 249.959556 269.612005 
L 249.034767 269.993892 
L 247.549071 270.592497 
L 246.678176 271.133179 
L 245.130887 271.856345 
L 244.245379 272.335647 
L 243.356876 272.795053 
L 242.511594 273.342795 
L 241.667169 273.892292 
L 240.755722 274.391486 
L 239.976432 274.993064 
L 239.195367 275.634686 
L 238.394029 276.242588 
L 237.059973 277.119079 
L 236.385799 277.768658 
L 235.595204 278.38118 
L 234.824495 279.020179 
L 233.900024 279.730667 
L 233.290927 280.382328 
L 232.580903 281.086613 
L 231.328993 282.328415 
L 230.828009 283.022248 
L 230.245444 283.835487 
L 229.405378 284.962086 
L 229.056897 285.699681 
L 228.600076 286.589318 
L 228.062187 287.570508 
L 227.859119 288.339189 
L 227.322812 290.199374 
L 227.269735 291.474215 
L 227.239537 292.851829 
L 227.358619 293.703024 
L 227.791088 295.58893 
L 228.172453 296.372987 
L 228.576838 297.288772 
L 229.046457 298.304006 
L 229.579732 299.041771 
L 230.112387 299.892862 
L 230.927962 301.038032 
L 231.564898 301.746803 
L 232.229789 302.497722 
L 233.430228 303.792707 
L 234.16701 304.460028 
L 234.94524 305.089013 
L 235.731093 305.707848 
L 236.579638 306.519423 
L 237.436451 307.076554 
L 238.246264 307.67036 
L 239.030765 308.306266 
L 240.373081 309.169019 
L 241.289505 309.673959 
L 242.149084 310.192482 
L 243.010939 310.706351 
L 243.883297 311.198756 
L 244.781972 311.724056 
L 245.750486 312.141649 
L 247.301911 312.854837 
L 248.258981 313.243293 
L 249.190476 313.607303 
L 250.125968 313.960658 
L 251.064996 314.304588 
L 252.567906 314.857301 
L 253.629162 315.130224 
L 254.602522 315.361231 
L 255.574912 315.59587 
L 256.546557 315.833292 
L 257.524789 316.046077 
L 258.499368 316.272523 
L 259.475088 316.494705 
L 260.445799 316.735622 
L 261.423617 316.949955 
L 262.417255 317.105101 
L 263.395744 317.316923 
L 264.608658 317.528794 
L 265.640807 317.681973 
L 266.634403 317.802997 
L 267.649659 317.79358 
L 268.640855 317.929061 
L 269.637485 318.031819 
L 270.628022 318.171268 
L 271.638202 318.192419 
L 272.633531 318.303012 
L 273.645008 318.316354 
L 274.64936 318.372609 
L 275.658249 318.401533 
L 276.649922 318.534144 
L 277.872071 318.716917 
L 278.826913 318.734553 
L 279.829758 318.739053 
L 280.828431 318.795621 
L 281.832935 318.779418 
L 282.834692 318.797498 
L 283.834951 318.834275 
L 284.835416 318.868478 
L 285.834288 318.922559 
L 286.83192 318.992112 
L 287.829111 319.067163 
L 288.825835 319.148049 
L 289.822336 319.231716 
L 291.779564 319.420604 
L 292.714716 319.487843 
L 293.714431 319.515865 
L 294.714066 319.54992 
L 295.713491 319.599798 
L 296.712917 319.649517 
L 297.712155 319.713427 
L 298.889528 319.84102 
L 298.88109 320.474636 
z
" style="fill:#b4a7d6;"/>
   </g>
   <g id="patch_6">
    <path clip-path="url(#p9d53db8d3a)" d="M 559.61415 349.50875 
L 560.61448 349.526867 
L 561.614883 349.550487 
L 562.616096 349.634908 
L 563.616441 349.65411 
L 564.617332 349.714412 
L 565.617757 349.739657 
L 566.797093 349.759367 
L 567.821549 349.735866 
L 568.823976 349.726146 
L 569.824931 349.698063 
L 570.826456 349.677083 
L 571.830316 349.685241 
L 572.830806 349.651356 
L 573.830998 349.613751 
L 574.830238 349.564265 
L 575.829123 349.510346 
L 576.827621 349.451597 
L 577.828763 349.425843 
L 578.827799 349.373811 
L 580.789953 349.246388 
L 581.860495 349.097817 
L 582.848822 348.945059 
L 583.836973 348.791239 
L 584.823432 348.62723 
L 585.808367 348.454041 
L 586.79295 348.278738 
L 587.77436 348.084321 
L 588.759023 347.909496 
L 589.740581 347.715978 
L 590.717282 347.493202 
L 591.697682 347.292705 
L 592.67777 347.09033 
L 593.889709 346.846067 
L 594.915929 346.541344 
L 595.864597 346.217964 
L 596.820574 345.921924 
L 597.775634 345.622457 
L 598.723488 345.296029 
L 599.680171 345.002632 
L 600.631169 344.687969 
L 601.568597 344.322539 
L 602.516431 343.996036 
L 603.453346 343.628686 
L 604.407606 343.326225 
L 605.576665 342.950292 
L 606.493834 342.554347 
L 607.401747 342.127466 
L 608.29642 341.665291 
L 609.20806 341.248346 
L 610.678101 340.608005 
L 611.575828 340.199847 
L 613.132492 339.499303 
L 613.971885 339.011371 
L 614.841032 338.512405 
L 615.705476 338.003826 
L 616.59172 337.539801 
L 617.512552 337.059787 
L 618.299313 336.557 
L 619.146289 336.02501 
L 619.989729 335.487138 
L 621.331021 334.622682 
L 622.033449 334.045326 
L 622.811489 333.416088 
L 623.601839 332.80324 
L 624.524581 332.090451 
L 625.14647 331.473065 
L 625.863366 330.775881 
L 627.130702 329.550016 
L 627.63522 328.868635 
L 628.250038 328.079855 
L 629.10587 326.965214 
L 629.475661 326.234087 
L 629.942527 325.349459 
L 630.456909 324.356547 
L 630.64603 323.578424 
L 631.131026 321.705529 
L 631.182309 320.439158 
L 631.185415 319.066238 
L 631.040694 318.235897 
L 630.607233 316.350237 
L 630.273544 315.566727 
L 629.875658 314.647702 
L 629.40686 313.632059 
L 628.926656 312.864934 
L 628.345137 312.0509 
L 627.521078 310.912163 
L 626.862809 310.238135 
L 626.182348 309.503305 
L 624.960268 308.230679 
L 624.205629 307.618361 
L 623.463664 306.941093 
L 622.693667 306.301147 
L 621.787921 305.565729 
L 620.951932 305.016344 
L 620.150729 304.408218 
L 619.315139 303.85729 
L 617.980221 302.982232 
L 617.093943 302.469686 
L 616.241623 301.936327 
L 615.35963 301.463615 
L 614.481545 300.982917 
L 613.579179 300.465161 
L 612.641519 300.022629 
L 611.094946 299.297733 
L 610.147237 298.909195 
L 609.235353 298.492902 
L 608.307474 298.11925 
L 607.381228 297.741246 
L 605.896623 297.139732 
L 604.852961 296.834008 
L 603.890482 296.562292 
L 602.931302 296.278235 
L 601.967626 296.011 
L 601.00476 295.740735 
L 600.041534 295.471814 
L 599.076916 295.208101 
L 598.112066 294.945258 
L 597.144553 294.692376 
L 596.17504 294.446973 
L 595.207019 294.195995 
L 594.015733 293.90321 
L 592.935781 293.743286 
L 591.943362 293.615171 
L 590.952617 293.476975 
L 589.962468 293.335188 
L 588.964713 293.239212 
L 587.966011 293.148933 
L 586.964124 293.077836 
L 585.969269 292.964391 
L 584.973942 292.853789 
L 583.981675 292.724756 
L 582.977805 292.665604 
L 581.982751 292.553355 
L 580.757815 292.387366 
L 579.736039 292.335653 
L 578.73435 292.316732 
L 577.73216 292.304056 
L 576.731449 292.272924 
L 575.729437 292.258027 
L 574.729582 292.216211 
L 573.729423 292.178192 
L 572.729262 292.140194 
L 571.727703 292.119639 
L 570.721859 292.152556 
L 569.720881 292.124759 
L 568.720928 292.08417 
L 566.757386 291.97407 
L 565.785964 292.018892 
L 564.785617 292.038236 
L 563.785224 292.061094 
L 562.784885 292.079865 
L 561.784518 292.100824 
L 560.783829 292.14588 
L 559.604363 292.175361 
L 558.62442 292.218299 
L 557.625179 292.281998 
L 556.625604 292.32051 
L 555.625973 292.354876 
L 554.626527 292.403157 
L 553.626939 292.440762 
L 552.448263 292.470527 
L 551.515175 292.566386 
L 550.519622 292.661879 
L 549.52382 292.754272 
L 548.527482 292.83997 
L 547.531227 292.926712 
L 546.534836 293.01175 
L 545.537889 293.089854 
L 544.540867 293.167018 
L 543.543172 293.235781 
L 542.544112 293.287517 
L 541.543809 293.323751 
L 540.545352 293.383008 
L 538.5823 293.499217 
L 537.660596 293.614724 
L 536.670973 293.759679 
L 535.680794 293.901282 
L 534.683383 293.999338 
L 533.688748 294.114107 
L 532.690182 294.205203 
L 531.69856 294.33812 
L 530.699517 294.42634 
L 529.706751 294.552366 
L 528.708117 294.643058 
L 527.70458 294.704212 
L 526.706648 294.799132 
L 525.470519 294.897717 
L 524.497687 295.101197 
L 523.499721 295.240151 
L 522.515419 295.430226 
L 521.519424 295.576557 
L 520.540385 295.786319 
L 519.565109 296.010163 
L 518.575424 296.180098 
L 517.595526 296.386646 
L 516.606743 296.55996 
L 515.622796 296.751363 
L 514.644639 296.964426 
L 513.44115 297.211555 
L 512.413563 297.539417 
L 511.471158 297.874341 
L 510.525376 298.200265 
L 509.582255 298.533281 
L 508.07618 299.077558 
L 507.10844 299.436608 
L 505.52587 300.074636 
L 504.568389 300.53168 
L 503.668243 300.967289 
L 502.767114 301.400889 
L 501.869985 301.842665 
L 500.939915 302.303799 
L 500.016202 302.874 
L 499.175617 303.41662 
L 498.338148 303.964422 
L 496.989144 304.816051 
L 496.153172 305.517068 
L 495.366461 306.134761 
L 494.597281 306.775794 
L 493.680057 307.495931 
L 492.932749 308.288909 
L 492.23589 309.006797 
L 491.003765 310.269044 
L 490.367277 311.151035 
L 489.827093 311.996416 
L 489.032866 313.157776 
L 488.651719 314.166202 
L 488.273012 315.094791 
L 487.877436 316.146947 
L 487.707711 317.154216 
L 487.347828 319.058102 
L 487.330474 320.480517 
L 487.492873 321.905786 
L 487.823199 322.803641 
L 488.332505 324.670514 
L 488.779894 325.469742 
L 489.272643 326.341463 
L 489.807083 327.324373 
L 490.38897 328.018115 
L 491.047125 328.77403 
L 491.927411 329.870127 
L 492.614348 330.454004 
L 493.367215 331.114021 
L 494.669728 332.303537 
L 495.419067 332.803155 
L 496.23187 333.386109 
L 497.040792 333.974231 
L 497.998497 334.640472 
L 498.78354 335.089328 
L 499.652289 335.585101 
L 500.519797 336.08294 
L 501.88972 336.899773 
L 502.713489 337.295928 
L 503.610394 337.738162 
L 504.503546 338.188067 
L 505.394358 338.642754 
L 506.312912 339.127424 
L 507.178267 339.499314 
L 508.734382 340.201183 
L 509.625929 340.587495 
L 510.543015 340.989918 
L 511.463738 341.382647 
L 512.375454 341.799387 
L 513.857043 342.408943 
L 514.75329 342.70135 
L 515.701438 343.026675 
L 516.652699 343.340356 
L 517.605825 343.647061 
L 518.551979 343.979847 
L 519.503033 344.294304 
L 520.453454 344.611126 
L 521.409928 344.905306 
L 522.359199 345.226431 
L 523.298131 345.586236 
L 524.248639 345.902733 
L 525.408649 346.312516 
L 526.407795 346.511763 
L 527.38593 346.725898 
L 528.353291 347.00492 
L 529.333977 347.203695 
L 530.311316 347.422628 
L 531.292832 347.6164 
L 532.264846 347.8674 
L 533.244006 348.075366 
L 534.217248 348.318969 
L 535.193888 348.54211 
L 536.170047 348.768151 
L 537.15278 348.954596 
L 538.369022 349.172945 
L 539.437992 349.290813 
L 540.432372 349.400949 
L 541.428172 349.493365 
L 542.422989 349.598045 
L 543.418828 349.689972 
L 544.415332 349.773602 
L 545.412491 349.849062 
L 546.410281 349.916643 
L 547.408237 349.982157 
L 548.406325 350.046017 
L 549.405967 350.09049 
L 550.404364 350.150501 
L 552.368664 350.251144 
L 553.425429 350.199885 
L 554.425705 350.185833 
L 555.426071 350.165006 
L 556.426631 350.129646 
L 557.427185 350.094683 
L 558.427883 350.048927 
L 559.60802 349.969032 
L 559.61415 349.50875 
z
" style="fill:#b4a7d6;"/>
   </g>
   <g id="matplotlib.axis_1">
    <g id="text_1">
     <!-- Runtime cost -->
     <g transform="translate(294.424062 362.82)scale(0.12 -0.12)">
      <defs>
       <path d="M 42.5 29 
Q 44.09375 27 46.546875 23.75 
Q 49 20.5 51.59375 16.546875 
Q 54.203125 12.59375 56.75 8.296875 
Q 59.296875 4 61.09375 0 
L 50.5 0 
Q 48.5 3.796875 46.140625 7.6875 
Q 43.796875 11.59375 41.390625 15.140625 
Q 39 18.703125 36.640625 21.796875 
Q 34.296875 24.90625 32.40625 27.203125 
Q 31.09375 27.09375 29.75 27.09375 
Q 28.40625 27.09375 27 27.09375 
L 18.296875 27.09375 
L 18.296875 0 
L 8.59375 0 
L 8.59375 68.296875 
Q 12.703125 69.296875 17.75 69.640625 
Q 22.796875 70 27 70 
Q 41.59375 70 49.25 64.5 
Q 56.90625 59 56.90625 48.09375 
Q 56.90625 41.203125 53.25 36.296875 
Q 49.59375 31.40625 42.5 29 
z
M 27.796875 61.5 
Q 21.59375 61.5 18.296875 61.203125 
L 18.296875 35.09375 
L 25.203125 35.09375 
Q 30.203125 35.09375 34.203125 35.59375 
Q 38.203125 36.09375 40.953125 37.5 
Q 43.703125 38.90625 45.203125 41.453125 
Q 46.703125 44 46.703125 48.203125 
Q 46.703125 52.09375 45.203125 54.6875 
Q 43.703125 57.296875 41.140625 58.796875 
Q 38.59375 60.296875 35.140625 60.890625 
Q 31.703125 61.5 27.796875 61.5 
z
" id="Ubuntu-82"/>
       <path d="M 49.40625 1.5 
Q 46.203125 0.703125 40.953125 -0.1875 
Q 35.703125 -1.09375 28.796875 -1.09375 
Q 22.796875 -1.09375 18.6875 0.65625 
Q 14.59375 2.40625 12.09375 5.59375 
Q 9.59375 8.796875 8.5 13.140625 
Q 7.40625 17.5 7.40625 22.796875 
L 7.40625 52 
L 16.703125 52 
L 16.703125 24.796875 
Q 16.703125 15.296875 19.703125 11.1875 
Q 22.703125 7.09375 29.796875 7.09375 
Q 31.296875 7.09375 32.890625 7.1875 
Q 34.5 7.296875 35.890625 7.4375 
Q 37.296875 7.59375 38.4375 7.75 
Q 39.59375 7.90625 40.09375 8.09375 
L 40.09375 52 
L 49.40625 52 
z
" id="Ubuntu-117"/>
       <path d="M 8 50.5 
Q 11.203125 51.296875 16.5 52.1875 
Q 21.796875 53.09375 28.703125 53.09375 
Q 34.90625 53.09375 39 51.34375 
Q 43.09375 49.59375 45.546875 46.4375 
Q 48 43.296875 49 38.890625 
Q 50 34.5 50 29.203125 
L 50 0 
L 40.703125 0 
L 40.703125 27.203125 
Q 40.703125 32 40.046875 35.390625 
Q 39.40625 38.796875 37.90625 40.890625 
Q 36.40625 43 33.90625 43.953125 
Q 31.40625 44.90625 27.703125 44.90625 
Q 26.203125 44.90625 24.59375 44.796875 
Q 23 44.703125 21.546875 44.546875 
Q 20.09375 44.40625 18.9375 44.203125 
Q 17.796875 44 17.296875 43.90625 
L 17.296875 0 
L 8 0 
z
" id="Ubuntu-110"/>
       <path d="M 16.703125 52 
L 36.40625 52 
L 36.40625 44.203125 
L 16.703125 44.203125 
L 16.703125 20.203125 
Q 16.703125 16.296875 17.296875 13.75 
Q 17.90625 11.203125 19.09375 9.75 
Q 20.296875 8.296875 22.09375 7.6875 
Q 23.90625 7.09375 26.296875 7.09375 
Q 30.5 7.09375 33.046875 8.046875 
Q 35.59375 9 36.59375 9.40625 
L 38.40625 1.703125 
Q 37 1 33.5 -0.046875 
Q 30 -1.09375 25.5 -1.09375 
Q 20.203125 -1.09375 16.75 0.25 
Q 13.296875 1.59375 11.1875 4.296875 
Q 9.09375 7 8.25 10.953125 
Q 7.40625 14.90625 7.40625 20.09375 
L 7.40625 66.5 
L 16.703125 68.09375 
z
" id="Ubuntu-116"/>
       <path d="M 17.296875 0 
L 8 0 
L 8 52 
L 17.296875 52 
z
M 12.59375 61.40625 
Q 10.09375 61.40625 8.34375 63.046875 
Q 6.59375 64.703125 6.59375 67.5 
Q 6.59375 70.296875 8.34375 71.9375 
Q 10.09375 73.59375 12.59375 73.59375 
Q 15.09375 73.59375 16.84375 71.9375 
Q 18.59375 70.296875 18.59375 67.5 
Q 18.59375 64.703125 16.84375 63.046875 
Q 15.09375 61.40625 12.59375 61.40625 
z
" id="Ubuntu-105"/>
       <path d="M 8 50.5 
Q 11.203125 51.296875 16.453125 52.1875 
Q 21.703125 53.09375 28.59375 53.09375 
Q 33.59375 53.09375 37 51.75 
Q 40.40625 50.40625 42.703125 47.796875 
Q 43.40625 48.296875 44.90625 49.1875 
Q 46.40625 50.09375 48.59375 50.9375 
Q 50.796875 51.796875 53.5 52.4375 
Q 56.203125 53.09375 59.296875 53.09375 
Q 65.296875 53.09375 69.09375 51.34375 
Q 72.90625 49.59375 75.046875 46.390625 
Q 77.203125 43.203125 77.953125 38.796875 
Q 78.703125 34.40625 78.703125 29.203125 
L 78.703125 0 
L 69.40625 0 
L 69.40625 27.203125 
Q 69.40625 31.796875 68.953125 35.09375 
Q 68.5 38.40625 67.25 40.59375 
Q 66 42.796875 63.84375 43.84375 
Q 61.703125 44.90625 58.296875 44.90625 
Q 53.59375 44.90625 50.546875 43.65625 
Q 47.5 42.40625 46.40625 41.40625 
Q 47.203125 38.796875 47.59375 35.6875 
Q 48 32.59375 48 29.203125 
L 48 0 
L 38.703125 0 
L 38.703125 27.203125 
Q 38.703125 31.796875 38.203125 35.09375 
Q 37.703125 38.40625 36.453125 40.59375 
Q 35.203125 42.796875 33.046875 43.84375 
Q 30.90625 44.90625 27.59375 44.90625 
Q 26.203125 44.90625 24.59375 44.796875 
Q 23 44.703125 21.546875 44.546875 
Q 20.09375 44.40625 18.890625 44.203125 
Q 17.703125 44 17.296875 43.90625 
L 17.296875 0 
L 8 0 
z
" id="Ubuntu-109"/>
       <path d="M 5.09375 25.90625 
Q 5.09375 32.796875 7.09375 37.9375 
Q 9.09375 43.09375 12.390625 46.5 
Q 15.703125 49.90625 20 51.59375 
Q 24.296875 53.296875 28.796875 53.296875 
Q 39.296875 53.296875 44.890625 46.75 
Q 50.5 40.203125 50.5 26.796875 
Q 50.5 26.203125 50.5 25.25 
Q 50.5 24.296875 50.40625 23.5 
L 14.796875 23.5 
Q 15.40625 15.40625 19.5 11.203125 
Q 23.59375 7 32.296875 7 
Q 37.203125 7 40.546875 7.84375 
Q 43.90625 8.703125 45.59375 9.5 
L 46.90625 1.703125 
Q 45.203125 0.796875 40.953125 -0.203125 
Q 36.703125 -1.203125 31.296875 -1.203125 
Q 24.5 -1.203125 19.546875 0.84375 
Q 14.59375 2.90625 11.390625 6.5 
Q 8.203125 10.09375 6.640625 15.046875 
Q 5.09375 20 5.09375 25.90625 
z
M 40.796875 31 
Q 40.90625 37.296875 37.65625 41.34375 
Q 34.40625 45.40625 28.703125 45.40625 
Q 25.5 45.40625 23.046875 44.15625 
Q 20.59375 42.90625 18.890625 40.90625 
Q 17.203125 38.90625 16.25 36.296875 
Q 15.296875 33.703125 15 31 
z
" id="Ubuntu-101"/>
       <path id="Ubuntu-32"/>
       <path d="M 30.59375 -1.203125 
Q 24.296875 -1.203125 19.546875 0.796875 
Q 14.796875 2.796875 11.546875 6.390625 
Q 8.296875 10 6.6875 14.953125 
Q 5.09375 19.90625 5.09375 25.90625 
Q 5.09375 31.90625 6.84375 36.90625 
Q 8.59375 41.90625 11.796875 45.546875 
Q 15 49.203125 19.640625 51.25 
Q 24.296875 53.296875 30 53.296875 
Q 33.5 53.296875 37 52.6875 
Q 40.5 52.09375 43.703125 50.796875 
L 41.59375 42.90625 
Q 39.5 43.90625 36.75 44.5 
Q 34 45.09375 30.90625 45.09375 
Q 23.09375 45.09375 18.9375 40.1875 
Q 14.796875 35.296875 14.796875 25.90625 
Q 14.796875 21.703125 15.75 18.203125 
Q 16.703125 14.703125 18.75 12.203125 
Q 20.796875 9.703125 24 8.34375 
Q 27.203125 7 31.796875 7 
Q 35.5 7 38.5 7.703125 
Q 41.5 8.40625 43.203125 9.203125 
L 44.5 1.40625 
Q 43.703125 0.90625 42.203125 0.453125 
Q 40.703125 0 38.796875 -0.34375 
Q 36.90625 -0.703125 34.75 -0.953125 
Q 32.59375 -1.203125 30.59375 -1.203125 
z
" id="Ubuntu-99"/>
       <path d="M 53.90625 26 
Q 53.90625 19.796875 52.09375 14.796875 
Q 50.296875 9.796875 47.046875 6.1875 
Q 43.796875 2.59375 39.296875 0.640625 
Q 34.796875 -1.296875 29.5 -1.296875 
Q 24.203125 -1.296875 19.703125 0.640625 
Q 15.203125 2.59375 11.953125 6.1875 
Q 8.703125 9.796875 6.890625 14.796875 
Q 5.09375 19.796875 5.09375 26 
Q 5.09375 32.09375 6.890625 37.140625 
Q 8.703125 42.203125 11.953125 45.796875 
Q 15.203125 49.40625 19.703125 51.34375 
Q 24.203125 53.296875 29.5 53.296875 
Q 34.796875 53.296875 39.296875 51.34375 
Q 43.796875 49.40625 47.046875 45.796875 
Q 50.296875 42.203125 52.09375 37.140625 
Q 53.90625 32.09375 53.90625 26 
z
M 44.203125 26 
Q 44.203125 34.796875 40.25 39.9375 
Q 36.296875 45.09375 29.5 45.09375 
Q 22.703125 45.09375 18.75 39.9375 
Q 14.796875 34.796875 14.796875 26 
Q 14.796875 17.203125 18.75 12.046875 
Q 22.703125 6.90625 29.5 6.90625 
Q 36.296875 6.90625 40.25 12.046875 
Q 44.203125 17.203125 44.203125 26 
z
" id="Ubuntu-111"/>
       <path d="M 20.09375 6.703125 
Q 25.796875 6.703125 28.546875 8.203125 
Q 31.296875 9.703125 31.296875 13 
Q 31.296875 16.40625 28.59375 18.40625 
Q 25.90625 20.40625 19.703125 22.90625 
Q 16.703125 24.09375 13.953125 25.34375 
Q 11.203125 26.59375 9.203125 28.296875 
Q 7.203125 30 6 32.390625 
Q 4.796875 34.796875 4.796875 38.296875 
Q 4.796875 45.203125 9.890625 49.25 
Q 15 53.296875 23.796875 53.296875 
Q 26 53.296875 28.203125 53.046875 
Q 30.40625 52.796875 32.296875 52.4375 
Q 34.203125 52.09375 35.640625 51.6875 
Q 37.09375 51.296875 37.90625 51 
L 36.203125 43 
Q 34.703125 43.796875 31.5 44.640625 
Q 28.296875 45.5 23.796875 45.5 
Q 19.90625 45.5 17 43.953125 
Q 14.09375 42.40625 14.09375 39.09375 
Q 14.09375 37.40625 14.75 36.09375 
Q 15.40625 34.796875 16.75 33.75 
Q 18.09375 32.703125 20.09375 31.796875 
Q 22.09375 30.90625 24.90625 29.90625 
Q 28.59375 28.5 31.5 27.140625 
Q 34.40625 25.796875 36.453125 24 
Q 38.5 22.203125 39.59375 19.640625 
Q 40.703125 17.09375 40.703125 13.40625 
Q 40.703125 6.203125 35.34375 2.5 
Q 30 -1.203125 20.09375 -1.203125 
Q 13.203125 -1.203125 9.296875 -0.046875 
Q 5.40625 1.09375 4 1.703125 
L 5.703125 9.703125 
Q 7.296875 9.09375 10.796875 7.890625 
Q 14.296875 6.703125 20.09375 6.703125 
z
" id="Ubuntu-115"/>
      </defs>
      <use xlink:href="#Ubuntu-82"/>
      <use x="62.899994" xlink:href="#Ubuntu-117"/>
      <use x="120.299988" xlink:href="#Ubuntu-110"/>
      <use x="177.699982" xlink:href="#Ubuntu-116"/>
      <use x="217.899979" xlink:href="#Ubuntu-105"/>
      <use x="243.199966" xlink:href="#Ubuntu-109"/>
      <use x="329.299957" xlink:href="#Ubuntu-101"/>
      <use x="385.199951" xlink:href="#Ubuntu-32"/>
      <use x="408.299942" xlink:href="#Ubuntu-99"/>
      <use x="453.549927" xlink:href="#Ubuntu-111"/>
      <use x="512.549911" xlink:href="#Ubuntu-115"/>
      <use x="557.149902" xlink:href="#Ubuntu-116"/>
     </g>
    </g>
   </g>
   <g id="matplotlib.axis_2">
    <g id="text_2">
     <!-- Startup cost -->
     <g transform="translate(22.27125 222.992687)rotate(-90)scale(0.12 -0.12)">
      <defs>
       <path d="M 24.703125 6.90625 
Q 39.90625 6.90625 39.90625 17.296875 
Q 39.90625 20.5 38.546875 22.75 
Q 37.203125 25 34.890625 26.640625 
Q 32.59375 28.296875 29.640625 29.5 
Q 26.703125 30.703125 23.40625 31.90625 
Q 19.59375 33.203125 16.1875 34.84375 
Q 12.796875 36.5 10.296875 38.75 
Q 7.796875 41 6.34375 44.09375 
Q 4.90625 47.203125 4.90625 51.59375 
Q 4.90625 60.703125 11.09375 65.796875 
Q 17.296875 70.90625 28.203125 70.90625 
Q 34.5 70.90625 39.640625 69.546875 
Q 44.796875 68.203125 47.203125 66.59375 
L 44.09375 58.703125 
Q 42 60 37.84375 61.25 
Q 33.703125 62.5 28.203125 62.5 
Q 25.40625 62.5 23 61.890625 
Q 20.59375 61.296875 18.796875 60.09375 
Q 17 58.90625 15.953125 57.046875 
Q 14.90625 55.203125 14.90625 52.703125 
Q 14.90625 49.90625 16 48 
Q 17.09375 46.09375 19.09375 44.640625 
Q 21.09375 43.203125 23.75 42 
Q 26.40625 40.796875 29.59375 39.59375 
Q 34.09375 37.796875 37.84375 36 
Q 41.59375 34.203125 44.34375 31.703125 
Q 47.09375 29.203125 48.59375 25.75 
Q 50.09375 22.296875 50.09375 17.40625 
Q 50.09375 8.296875 43.4375 3.390625 
Q 36.796875 -1.5 24.703125 -1.5 
Q 20.59375 -1.5 17.140625 -0.953125 
Q 13.703125 -0.40625 11 0.34375 
Q 8.296875 1.09375 6.34375 1.9375 
Q 4.40625 2.796875 3.296875 3.40625 
L 6.203125 11.40625 
Q 8.5 10.09375 13.203125 8.5 
Q 17.90625 6.90625 24.703125 6.90625 
z
" id="Ubuntu-83"/>
       <path d="M 25.59375 6.703125 
Q 28.90625 6.703125 31.453125 6.84375 
Q 34 7 35.703125 7.40625 
L 35.703125 22.90625 
Q 34.703125 23.40625 32.453125 23.75 
Q 30.203125 24.09375 27 24.09375 
Q 24.90625 24.09375 22.546875 23.796875 
Q 20.203125 23.5 18.25 22.546875 
Q 16.296875 21.59375 15 19.9375 
Q 13.703125 18.296875 13.703125 15.59375 
Q 13.703125 10.59375 16.890625 8.640625 
Q 20.09375 6.703125 25.59375 6.703125 
z
M 24.796875 53.296875 
Q 30.40625 53.296875 34.25 51.84375 
Q 38.09375 50.40625 40.4375 47.75 
Q 42.796875 45.09375 43.796875 41.4375 
Q 44.796875 37.796875 44.796875 33.40625 
L 44.796875 0.90625 
Q 43.59375 0.703125 41.4375 0.34375 
Q 39.296875 0 36.59375 -0.296875 
Q 33.90625 -0.59375 30.75 -0.84375 
Q 27.59375 -1.09375 24.5 -1.09375 
Q 20.09375 -1.09375 16.390625 -0.1875 
Q 12.703125 0.703125 10 2.640625 
Q 7.296875 4.59375 5.796875 7.796875 
Q 4.296875 11 4.296875 15.5 
Q 4.296875 19.796875 6.046875 22.890625 
Q 7.796875 26 10.796875 27.890625 
Q 13.796875 29.796875 17.796875 30.6875 
Q 21.796875 31.59375 26.203125 31.59375 
Q 27.59375 31.59375 29.09375 31.4375 
Q 30.59375 31.296875 31.9375 31.046875 
Q 33.296875 30.796875 34.296875 30.59375 
Q 35.296875 30.40625 35.703125 30.296875 
L 35.703125 32.90625 
Q 35.703125 35.203125 35.203125 37.453125 
Q 34.703125 39.703125 33.390625 41.453125 
Q 32.09375 43.203125 29.84375 44.25 
Q 27.59375 45.296875 24 45.296875 
Q 19.40625 45.296875 15.953125 44.640625 
Q 12.5 44 10.796875 43.296875 
L 9.703125 51 
Q 11.5 51.796875 15.703125 52.546875 
Q 19.90625 53.296875 24.796875 53.296875 
z
" id="Ubuntu-97"/>
       <path d="M 27.203125 53.09375 
Q 28.40625 53.09375 29.953125 52.9375 
Q 31.5 52.796875 33 52.546875 
Q 34.5 52.296875 35.75 52.046875 
Q 37 51.796875 37.59375 51.59375 
L 36 43.5 
Q 34.90625 43.90625 32.34375 44.453125 
Q 29.796875 45 25.796875 45 
Q 23.203125 45 20.640625 44.453125 
Q 18.09375 43.90625 17.296875 43.703125 
L 17.296875 0 
L 8 0 
L 8 49.796875 
Q 11.296875 51 16.1875 52.046875 
Q 21.09375 53.09375 27.203125 53.09375 
z
" id="Ubuntu-114"/>
       <path d="M 44.09375 25.90625 
Q 44.09375 35 39.59375 39.890625 
Q 35.09375 44.796875 27.59375 44.796875 
Q 23.40625 44.796875 21.046875 44.5 
Q 18.703125 44.203125 17.296875 43.796875 
L 17.296875 11 
Q 19 9.59375 22.203125 8.296875 
Q 25.40625 7 29.203125 7 
Q 33.203125 7 36.046875 8.453125 
Q 38.90625 9.90625 40.703125 12.453125 
Q 42.5 15 43.296875 18.453125 
Q 44.09375 21.90625 44.09375 25.90625 
z
M 53.796875 25.90625 
Q 53.796875 20 52.25 15 
Q 50.703125 10 47.703125 6.390625 
Q 44.703125 2.796875 40.34375 0.796875 
Q 36 -1.203125 30.40625 -1.203125 
Q 25.90625 -1.203125 22.453125 0 
Q 19 1.203125 17.296875 2.296875 
L 17.296875 -18.5 
L 8 -18.5 
L 8 50.40625 
Q 11.296875 51.203125 16.25 52.140625 
Q 21.203125 53.09375 27.703125 53.09375 
Q 33.703125 53.09375 38.5 51.1875 
Q 43.296875 49.296875 46.6875 45.796875 
Q 50.09375 42.296875 51.9375 37.25 
Q 53.796875 32.203125 53.796875 25.90625 
z
" id="Ubuntu-112"/>
      </defs>
      <use xlink:href="#Ubuntu-83"/>
      <use x="53.199997" xlink:href="#Ubuntu-116"/>
      <use x="93.399994" xlink:href="#Ubuntu-97"/>
      <use x="145.599991" xlink:href="#Ubuntu-114"/>
      <use x="184.199982" xlink:href="#Ubuntu-116"/>
      <use x="224.399979" xlink:href="#Ubuntu-117"/>
      <use x="281.799973" xlink:href="#Ubuntu-112"/>
      <use x="340.699966" xlink:href="#Ubuntu-32"/>
      <use x="363.799957" xlink:href="#Ubuntu-99"/>
      <use x="409.049942" xlink:href="#Ubuntu-111"/>
      <use x="468.049927" xlink:href="#Ubuntu-115"/>
      <use x="512.649918" xlink:href="#Ubuntu-116"/>
     </g>
    </g>
   </g>
   <g id="line2d_1">
    <defs>
     <path d="M 3 0 
L -3 -3 
L -3 3 
z
" id="me1970da5e7" style="stroke:#000000;stroke-linejoin:miter;"/>
    </defs>
    <g>
     <use style="stroke:#000000;stroke-linejoin:miter;" x="632.04" xlink:href="#me1970da5e7" y="349.50875"/>
    </g>
   </g>
   <g id="line2d_2">
    <defs>
     <path d="M 0 -3 
L -3 3 
L 3 3 
z
" id="m96b7b6eb08" style="stroke:#000000;stroke-linejoin:miter;"/>
    </defs>
    <g>
     <use style="stroke:#000000;stroke-linejoin:miter;" x="28.49125" xlink:href="#m96b7b6eb08" y="30.1335"/>
    </g>
   </g>
   <g id="patch_7">
    <path d="M 28.49125 349.50875 
L 28.49125 30.1335 
" style="fill:none;stroke:#000000;stroke-linecap:square;stroke-linejoin:miter;stroke-width:2;"/>
   </g>
   <g id="patch_8">
    <path d="M 28.49125 349.50875 
L 632.04 349.50875 
" style="fill:none;stroke:#000000;stroke-linecap:square;stroke-linejoin:miter;stroke-width:2;"/>
   </g>
   <g id="text_3">
    <!-- aWsm -->
    <g transform="translate(94.131068 143.068205)scale(0.12 -0.12)">
     <defs>
      <path d="M 46.5 47 
Q 42.296875 33.59375 38 22.1875 
Q 33.703125 10.796875 29.40625 0 
L 19.703125 0 
Q 14.40625 15.296875 10.34375 32.296875 
Q 6.296875 49.296875 2.796875 69.296875 
L 13 69.296875 
Q 14.40625 61.5 15.90625 53.703125 
Q 17.40625 45.90625 19 38.546875 
Q 20.59375 31.203125 22.1875 24.5 
Q 23.796875 17.796875 25.5 12.09375 
Q 29.5 22.59375 34 35.140625 
Q 38.5 47.703125 42.40625 61.09375 
L 50.796875 61.09375 
Q 54.703125 47.703125 59.296875 35.140625 
Q 63.90625 22.59375 67.90625 12.09375 
Q 69.5 17.703125 71.09375 24.390625 
Q 72.703125 31.09375 74.25 38.4375 
Q 75.796875 45.796875 77.296875 53.640625 
Q 78.796875 61.5 80.203125 69.296875 
L 90.09375 69.296875 
Q 86.5 49.296875 82.453125 32.296875 
Q 78.40625 15.296875 73.203125 0 
L 63.5 0 
Q 59.09375 10.796875 54.890625 22.1875 
Q 50.703125 33.59375 46.5 47 
z
" id="Ubuntu-87"/>
     </defs>
     <use xlink:href="#Ubuntu-97"/>
     <use x="52.199997" xlink:href="#Ubuntu-87"/>
     <use x="143.349991" xlink:href="#Ubuntu-115"/>
     <use x="187.949982" xlink:href="#Ubuntu-109"/>
    </g>
    <!-- (LLVM) -->
    <g transform="translate(91.93263 156.562955)scale(0.12 -0.12)">
     <defs>
      <path d="M 17.09375 29.90625 
Q 17.09375 17.09375 20.796875 6.1875 
Q 24.5 -4.703125 31.703125 -14 
L 25.09375 -18.5 
Q 17.296875 -9 12.546875 3.34375 
Q 7.796875 15.703125 7.796875 29.90625 
Q 7.796875 44.09375 12.546875 56.4375 
Q 17.296875 68.796875 25.09375 78.296875 
L 31.703125 73.796875 
Q 24.5 64.5 20.796875 53.59375 
Q 17.09375 42.703125 17.09375 29.90625 
z
" id="Ubuntu-40"/>
      <path d="M 50.296875 8.40625 
L 50.296875 0 
L 8.59375 0 
L 8.59375 69.296875 
L 18.296875 69.296875 
L 18.296875 8.40625 
z
" id="Ubuntu-76"/>
      <path d="M 64.59375 69.296875 
Q 60.796875 58.296875 57.34375 48.9375 
Q 53.90625 39.59375 50.59375 31.1875 
Q 47.296875 22.796875 44.046875 15.140625 
Q 40.796875 7.5 37.40625 0 
L 28.296875 0 
Q 24.90625 7.5 21.65625 15.140625 
Q 18.40625 22.796875 15.046875 31.1875 
Q 11.703125 39.59375 8.203125 48.9375 
Q 4.703125 58.296875 1 69.296875 
L 11.703125 69.296875 
Q 17.09375 53.5 22.296875 38.890625 
Q 27.5 24.296875 33 11.5 
Q 38.5 24.203125 43.703125 38.84375 
Q 48.90625 53.5 54.203125 69.296875 
z
" id="Ubuntu-86"/>
      <path d="M 39.703125 9.59375 
Q 38.703125 12 37.046875 15.703125 
Q 35.40625 19.40625 33.5 23.703125 
Q 31.59375 28 29.4375 32.546875 
Q 27.296875 37.09375 25.390625 41.140625 
Q 23.5 45.203125 21.84375 48.390625 
Q 20.203125 51.59375 19.203125 53.296875 
Q 18.09375 41.5 17.390625 27.75 
Q 16.703125 14 16.203125 0 
L 6.703125 0 
Q 7.09375 9 7.59375 18.140625 
Q 8.09375 27.296875 8.75 36.140625 
Q 9.40625 45 10.15625 53.390625 
Q 10.90625 61.796875 11.796875 69.296875 
L 20.296875 69.296875 
Q 23 64.90625 26.09375 58.90625 
Q 29.203125 52.90625 32.296875 46.34375 
Q 35.40625 39.796875 38.296875 33.25 
Q 41.203125 26.703125 43.59375 21.296875 
Q 46 26.703125 48.890625 33.25 
Q 51.796875 39.796875 54.890625 46.34375 
Q 58 52.90625 61.09375 58.90625 
Q 64.203125 64.90625 66.90625 69.296875 
L 75.40625 69.296875 
Q 78.796875 35.796875 80.5 0 
L 71 0 
Q 70.5 14 69.796875 27.75 
Q 69.09375 41.5 68 53.296875 
Q 67 51.59375 65.34375 48.390625 
Q 63.703125 45.203125 61.796875 41.140625 
Q 59.90625 37.09375 57.75 32.546875 
Q 55.59375 28 53.6875 23.703125 
Q 51.796875 19.40625 50.140625 15.703125 
Q 48.5 12 47.5 9.59375 
z
" id="Ubuntu-77"/>
      <path d="M 15.296875 29.90625 
Q 15.296875 42.703125 11.59375 53.59375 
Q 7.90625 64.5 0.703125 73.796875 
L 7.296875 78.296875 
Q 15.09375 68.796875 19.84375 56.4375 
Q 24.59375 44.09375 24.59375 29.90625 
Q 24.59375 15.703125 19.84375 3.34375 
Q 15.09375 -9 7.296875 -18.5 
L 0.703125 -14 
Q 7.90625 -4.703125 11.59375 6.1875 
Q 15.296875 17.09375 15.296875 29.90625 
z
" id="Ubuntu-41"/>
     </defs>
     <use xlink:href="#Ubuntu-40"/>
     <use x="32.399994" xlink:href="#Ubuntu-76"/>
     <use x="84.299988" xlink:href="#Ubuntu-76"/>
     <use x="126.199982" xlink:href="#Ubuntu-86"/>
     <use x="191.174973" xlink:href="#Ubuntu-77"/>
     <use x="278.274963" xlink:href="#Ubuntu-41"/>
    </g>
   </g>
   <g id="text_4">
    <!-- Wasmtime -->
    <g transform="translate(134.860857 201.136432)scale(0.12 -0.12)">
     <use xlink:href="#Ubuntu-87"/>
     <use x="90.024994" xlink:href="#Ubuntu-97"/>
     <use x="142.224991" xlink:href="#Ubuntu-115"/>
     <use x="186.824982" xlink:href="#Ubuntu-109"/>
     <use x="272.924973" xlink:href="#Ubuntu-116"/>
     <use x="313.124969" xlink:href="#Ubuntu-105"/>
     <use x="338.424957" xlink:href="#Ubuntu-109"/>
     <use x="424.524948" xlink:href="#Ubuntu-101"/>
    </g>
    <!-- (Cranelift) -->
    <g transform="translate(136.12742 214.631182)scale(0.12 -0.12)">
     <defs>
      <path d="M 38.40625 -1.5 
Q 31.09375 -1.5 25.09375 0.890625 
Q 19.09375 3.296875 14.796875 7.890625 
Q 10.5 12.5 8.140625 19.25 
Q 5.796875 26 5.796875 34.703125 
Q 5.796875 43.40625 8.4375 50.15625 
Q 11.09375 56.90625 15.59375 61.5 
Q 20.09375 66.09375 26.09375 68.5 
Q 32.09375 70.90625 38.90625 70.90625 
Q 43.203125 70.90625 46.640625 70.296875 
Q 50.09375 69.703125 52.640625 68.890625 
Q 55.203125 68.09375 56.796875 67.296875 
Q 58.40625 66.5 59 66.09375 
L 56.203125 58.09375 
Q 55.296875 58.703125 53.59375 59.390625 
Q 51.90625 60.09375 49.75 60.796875 
Q 47.59375 61.5 45.046875 61.953125 
Q 42.5 62.40625 39.90625 62.40625 
Q 34.40625 62.40625 30 60.5 
Q 25.59375 58.59375 22.5 55 
Q 19.40625 51.40625 17.75 46.25 
Q 16.09375 41.09375 16.09375 34.703125 
Q 16.09375 28.5 17.546875 23.390625 
Q 19 18.296875 21.890625 14.640625 
Q 24.796875 11 29.140625 9 
Q 33.5 7 39.296875 7 
Q 46 7 50.390625 8.390625 
Q 54.796875 9.796875 57 10.90625 
L 59.5 2.90625 
Q 58.796875 2.40625 57 1.65625 
Q 55.203125 0.90625 52.5 0.203125 
Q 49.796875 -0.5 46.1875 -1 
Q 42.59375 -1.5 38.40625 -1.5 
z
" id="Ubuntu-67"/>
      <path d="M 23.59375 -1 
Q 15 -0.796875 11.390625 2.703125 
Q 7.796875 6.203125 7.796875 13.59375 
L 7.796875 76 
L 17.09375 77.59375 
L 17.09375 15.09375 
Q 17.09375 12.796875 17.5 11.296875 
Q 17.90625 9.796875 18.796875 8.890625 
Q 19.703125 8 21.203125 7.546875 
Q 22.703125 7.09375 24.90625 6.796875 
z
" id="Ubuntu-108"/>
      <path d="M 28.296875 77.59375 
Q 32.40625 77.59375 35.34375 77 
Q 38.296875 76.40625 39.5 75.90625 
L 37.796875 67.90625 
Q 36.59375 68.5 34.390625 69.046875 
Q 32.203125 69.59375 29 69.59375 
Q 22.5 69.59375 19.890625 66.046875 
Q 17.296875 62.5 17.296875 56.5 
L 17.296875 52 
L 37.296875 52 
L 37.296875 44.203125 
L 17.296875 44.203125 
L 17.296875 0 
L 8 0 
L 8 56.703125 
Q 8 66.703125 12.890625 72.140625 
Q 17.796875 77.59375 28.296875 77.59375 
z
" id="Ubuntu-102"/>
     </defs>
     <use xlink:href="#Ubuntu-40"/>
     <use x="29.399994" xlink:href="#Ubuntu-67"/>
     <use x="91.399979" xlink:href="#Ubuntu-114"/>
     <use x="129.999969" xlink:href="#Ubuntu-97"/>
     <use x="182.199966" xlink:href="#Ubuntu-110"/>
     <use x="239.59996" xlink:href="#Ubuntu-101"/>
     <use x="295.499954" xlink:href="#Ubuntu-108"/>
     <use x="322.799942" xlink:href="#Ubuntu-105"/>
     <use x="348.09993" xlink:href="#Ubuntu-102"/>
     <use x="386.699921" xlink:href="#Ubuntu-116"/>
     <use x="426.899918" xlink:href="#Ubuntu-41"/>
    </g>
   </g>
   <g id="text_5">
    <!-- AoT compilers -->
    <g transform="translate(103.283727 106.264409)scale(0.12 -0.12)">
     <defs>
      <path d="M 54.90625 0 
Q 53.203125 4.5 51.703125 8.84375 
Q 50.203125 13.203125 48.59375 17.703125 
L 17.203125 17.703125 
L 10.90625 0 
L 0.796875 0 
Q 4.796875 11 8.296875 20.34375 
Q 11.796875 29.703125 15.140625 38.09375 
Q 18.5 46.5 21.796875 54.140625 
Q 25.09375 61.796875 28.703125 69.296875 
L 37.59375 69.296875 
Q 41.203125 61.796875 44.5 54.140625 
Q 47.796875 46.5 51.140625 38.09375 
Q 54.5 29.703125 58 20.34375 
Q 61.5 11 65.5 0 
z
M 45.796875 25.703125 
Q 42.59375 34.40625 39.4375 42.546875 
Q 36.296875 50.703125 32.90625 58.203125 
Q 29.40625 50.703125 26.25 42.546875 
Q 23.09375 34.40625 20 25.703125 
z
" id="Ubuntu-65"/>
      <path d="M 54.90625 69.296875 
L 54.90625 60.90625 
L 33.09375 60.90625 
L 33.09375 0 
L 23.40625 0 
L 23.40625 60.90625 
L 1.59375 60.90625 
L 1.59375 69.296875 
z
" id="Ubuntu-84"/>
     </defs>
     <use xlink:href="#Ubuntu-65"/>
     <use x="65.049988" xlink:href="#Ubuntu-111"/>
     <use x="124.049973" xlink:href="#Ubuntu-84"/>
     <use x="180.549957" xlink:href="#Ubuntu-32"/>
     <use x="203.649948" xlink:href="#Ubuntu-99"/>
     <use x="248.899933" xlink:href="#Ubuntu-111"/>
     <use x="307.899918" xlink:href="#Ubuntu-109"/>
     <use x="393.999908" xlink:href="#Ubuntu-112"/>
     <use x="452.899902" xlink:href="#Ubuntu-105"/>
     <use x="478.19989" xlink:href="#Ubuntu-108"/>
     <use x="505.499878" xlink:href="#Ubuntu-101"/>
     <use x="561.399872" xlink:href="#Ubuntu-114"/>
     <use x="599.999863" xlink:href="#Ubuntu-115"/>
    </g>
   </g>
   <g id="text_6">
    <!-- JIT compilers -->
    <g transform="translate(263.03484 294.986148)scale(0.12 -0.12)">
     <defs>
      <path d="M 41.90625 22.296875 
Q 41.90625 17.296875 40.84375 13 
Q 39.796875 8.703125 37.140625 5.453125 
Q 34.5 2.203125 30.046875 0.34375 
Q 25.59375 -1.5 18.90625 -1.5 
Q 15.5 -1.5 12.640625 -0.953125 
Q 9.796875 -0.40625 7.5 0.4375 
Q 5.203125 1.296875 3.5 2.25 
Q 1.796875 3.203125 0.796875 4.09375 
L 4.59375 11.796875 
Q 6.703125 10.296875 10.046875 8.640625 
Q 13.40625 7 18.40625 7 
Q 25.59375 7 28.890625 10.640625 
Q 32.203125 14.296875 32.203125 23.203125 
L 32.203125 69.296875 
L 41.90625 69.296875 
z
" id="Ubuntu-74"/>
      <path d="M 8.59375 69.296875 
L 18.296875 69.296875 
L 18.296875 0 
L 8.59375 0 
z
" id="Ubuntu-73"/>
     </defs>
     <use xlink:href="#Ubuntu-74"/>
     <use x="49.999985" xlink:href="#Ubuntu-73"/>
     <use x="76.899979" xlink:href="#Ubuntu-84"/>
     <use x="133.399963" xlink:href="#Ubuntu-32"/>
     <use x="156.499954" xlink:href="#Ubuntu-99"/>
     <use x="201.749939" xlink:href="#Ubuntu-111"/>
     <use x="260.749924" xlink:href="#Ubuntu-109"/>
     <use x="346.849915" xlink:href="#Ubuntu-112"/>
     <use x="405.749908" xlink:href="#Ubuntu-105"/>
     <use x="431.049896" xlink:href="#Ubuntu-108"/>
     <use x="458.349884" xlink:href="#Ubuntu-101"/>
     <use x="514.249878" xlink:href="#Ubuntu-114"/>
     <use x="552.849869" xlink:href="#Ubuntu-115"/>
    </g>
   </g>
   <g id="text_7">
    <!-- Interpreters -->
    <g transform="translate(526.631025 324.020261)scale(0.12 -0.12)">
     <use xlink:href="#Ubuntu-73"/>
     <use x="26.899994" xlink:href="#Ubuntu-110"/>
     <use x="84.299988" xlink:href="#Ubuntu-116"/>
     <use x="123.499985" xlink:href="#Ubuntu-101"/>
     <use x="179.399979" xlink:href="#Ubuntu-114"/>
     <use x="217.999969" xlink:href="#Ubuntu-112"/>
     <use x="276.899963" xlink:href="#Ubuntu-114"/>
     <use x="315.499954" xlink:href="#Ubuntu-101"/>
     <use x="371.399948" xlink:href="#Ubuntu-116"/>
     <use x="410.599945" xlink:href="#Ubuntu-101"/>
     <use x="466.499939" xlink:href="#Ubuntu-114"/>
     <use x="505.09993" xlink:href="#Ubuntu-115"/>
    </g>
   </g>
   <g id="text_8">
    <!-- Performance tradeoffs for WebAssembly implementations -->
    <g transform="translate(139.21925 24.1335)scale(0.144 -0.144)">
     <defs>
      <path d="M 27 70 
Q 41.59375 70 49.4375 64.453125 
Q 57.296875 58.90625 57.296875 47.90625 
Q 57.296875 41.90625 55.140625 37.65625 
Q 53 33.40625 48.953125 30.75 
Q 44.90625 28.09375 39.09375 26.890625 
Q 33.296875 25.703125 26 25.703125 
L 18.296875 25.703125 
L 18.296875 0 
L 8.59375 0 
L 8.59375 68.296875 
Q 12.703125 69.296875 17.75 69.640625 
Q 22.796875 70 27 70 
z
M 27.796875 61.5 
Q 21.59375 61.5 18.296875 61.203125 
L 18.296875 34 
L 25.59375 34 
Q 30.59375 34 34.59375 34.640625 
Q 38.59375 35.296875 41.34375 36.84375 
Q 44.09375 38.40625 45.59375 41.09375 
Q 47.09375 43.796875 47.09375 48 
Q 47.09375 52 45.546875 54.59375 
Q 44 57.203125 41.34375 58.75 
Q 38.703125 60.296875 35.203125 60.890625 
Q 31.703125 61.5 27.796875 61.5 
z
" id="Ubuntu-80"/>
      <path d="M 41.59375 41 
Q 39.90625 42.40625 36.703125 43.703125 
Q 33.5 45 29.703125 45 
Q 25.703125 45 22.84375 43.546875 
Q 20 42.09375 18.203125 39.546875 
Q 16.40625 37 15.59375 33.5 
Q 14.796875 30 14.796875 26 
Q 14.796875 16.90625 19.296875 11.953125 
Q 23.796875 7 31.296875 7 
Q 35.09375 7 37.640625 7.34375 
Q 40.203125 7.703125 41.59375 8.09375 
z
M 41.59375 76 
L 50.90625 77.59375 
L 50.90625 1.5 
Q 47.703125 0.59375 42.703125 -0.296875 
Q 37.703125 -1.203125 31.203125 -1.203125 
Q 25.203125 -1.203125 20.390625 0.6875 
Q 15.59375 2.59375 12.1875 6.09375 
Q 8.796875 9.59375 6.9375 14.640625 
Q 5.09375 19.703125 5.09375 26 
Q 5.09375 32 6.640625 37 
Q 8.203125 42 11.203125 45.59375 
Q 14.203125 49.203125 18.546875 51.203125 
Q 22.90625 53.203125 28.5 53.203125 
Q 33 53.203125 36.453125 52 
Q 39.90625 50.796875 41.59375 49.703125 
z
" id="Ubuntu-100"/>
      <path d="M 17.296875 49.703125 
Q 19 50.796875 22.453125 52 
Q 25.90625 53.203125 30.40625 53.203125 
Q 36 53.203125 40.34375 51.203125 
Q 44.703125 49.203125 47.703125 45.59375 
Q 50.703125 42 52.25 37 
Q 53.796875 32 53.796875 26 
Q 53.796875 19.703125 51.9375 14.640625 
Q 50.09375 9.59375 46.6875 6.09375 
Q 43.296875 2.59375 38.5 0.6875 
Q 33.703125 -1.203125 27.703125 -1.203125 
Q 21.203125 -1.203125 16.203125 -0.296875 
Q 11.203125 0.59375 8 1.5 
L 8 76 
L 17.296875 77.59375 
z
M 17.296875 8.09375 
Q 18.703125 7.703125 21.25 7.34375 
Q 23.796875 7 27.59375 7 
Q 35.09375 7 39.59375 11.953125 
Q 44.09375 16.90625 44.09375 26 
Q 44.09375 30 43.296875 33.5 
Q 42.5 37 40.703125 39.546875 
Q 38.90625 42.09375 36.046875 43.546875 
Q 33.203125 45 29.203125 45 
Q 25.40625 45 22.203125 43.703125 
Q 19 42.40625 17.296875 41 
z
" id="Ubuntu-98"/>
      <path d="M 1.90625 -9.703125 
Q 3 -10.203125 4.75 -10.640625 
Q 6.5 -11.09375 8.203125 -11.09375 
Q 13.703125 -11.09375 16.796875 -8.640625 
Q 19.90625 -6.203125 22.40625 -0.703125 
Q 16.09375 11.296875 10.640625 24.75 
Q 5.203125 38.203125 1.59375 52 
L 11.59375 52 
Q 12.703125 47.5 14.25 42.296875 
Q 15.796875 37.09375 17.6875 31.59375 
Q 19.59375 26.09375 21.796875 20.59375 
Q 24 15.09375 26.40625 10 
Q 30.203125 20.5 33 30.796875 
Q 35.796875 41.09375 38.296875 52 
L 47.90625 52 
Q 44.296875 37.296875 39.890625 23.75 
Q 35.5 10.203125 30.40625 -1.59375 
Q 28.40625 -6.09375 26.25 -9.34375 
Q 24.09375 -12.59375 21.5 -14.6875 
Q 18.90625 -16.796875 15.65625 -17.796875 
Q 12.40625 -18.796875 8.296875 -18.796875 
Q 7.203125 -18.796875 6 -18.640625 
Q 4.796875 -18.5 3.640625 -18.25 
Q 2.5 -18 1.546875 -17.703125 
Q 0.59375 -17.40625 0.203125 -17.203125 
z
" id="Ubuntu-121"/>
     </defs>
     <use xlink:href="#Ubuntu-80"/>
     <use x="57.549988" xlink:href="#Ubuntu-101"/>
     <use x="113.449982" xlink:href="#Ubuntu-114"/>
     <use x="152.049973" xlink:href="#Ubuntu-102"/>
     <use x="190.649963" xlink:href="#Ubuntu-111"/>
     <use x="249.649948" xlink:href="#Ubuntu-114"/>
     <use x="288.249939" xlink:href="#Ubuntu-109"/>
     <use x="374.34993" xlink:href="#Ubuntu-97"/>
     <use x="426.549927" xlink:href="#Ubuntu-110"/>
     <use x="483.949921" xlink:href="#Ubuntu-99"/>
     <use x="530.449905" xlink:href="#Ubuntu-101"/>
     <use x="586.349899" xlink:href="#Ubuntu-32"/>
     <use x="609.44989" xlink:href="#Ubuntu-116"/>
     <use x="649.649887" xlink:href="#Ubuntu-114"/>
     <use x="688.249878" xlink:href="#Ubuntu-97"/>
     <use x="740.449875" xlink:href="#Ubuntu-100"/>
     <use x="799.349869" xlink:href="#Ubuntu-101"/>
     <use x="855.249863" xlink:href="#Ubuntu-111"/>
     <use x="914.249847" xlink:href="#Ubuntu-102"/>
     <use x="952.849838" xlink:href="#Ubuntu-102"/>
     <use x="991.449829" xlink:href="#Ubuntu-115"/>
     <use x="1036.04982" xlink:href="#Ubuntu-32"/>
     <use x="1059.149811" xlink:href="#Ubuntu-102"/>
     <use x="1097.749802" xlink:href="#Ubuntu-111"/>
     <use x="1156.749786" xlink:href="#Ubuntu-114"/>
     <use x="1195.349777" xlink:href="#Ubuntu-32"/>
     <use x="1218.449768" xlink:href="#Ubuntu-87"/>
     <use x="1309.099762" xlink:href="#Ubuntu-101"/>
     <use x="1364.999756" xlink:href="#Ubuntu-98"/>
     <use x="1423.89975" xlink:href="#Ubuntu-65"/>
     <use x="1491.449738" xlink:href="#Ubuntu-115"/>
     <use x="1536.049728" xlink:href="#Ubuntu-115"/>
     <use x="1580.649719" xlink:href="#Ubuntu-101"/>
     <use x="1636.549713" xlink:href="#Ubuntu-109"/>
     <use x="1722.649704" xlink:href="#Ubuntu-98"/>
     <use x="1781.549698" xlink:href="#Ubuntu-108"/>
     <use x="1808.849686" xlink:href="#Ubuntu-121"/>
     <use x="1858.549683" xlink:href="#Ubuntu-32"/>
     <use x="1881.649673" xlink:href="#Ubuntu-105"/>
     <use x="1906.949661" xlink:href="#Ubuntu-109"/>
     <use x="1993.049652" xlink:href="#Ubuntu-112"/>
     <use x="2051.949646" xlink:href="#Ubuntu-108"/>
     <use x="2079.249634" xlink:href="#Ubuntu-101"/>
     <use x="2135.149628" xlink:href="#Ubuntu-109"/>
     <use x="2221.249619" xlink:href="#Ubuntu-101"/>
     <use x="2277.149612" xlink:href="#Ubuntu-110"/>
     <use x="2334.549606" xlink:href="#Ubuntu-116"/>
     <use x="2374.749603" xlink:href="#Ubuntu-97"/>
     <use x="2426.9496" xlink:href="#Ubuntu-116"/>
     <use x="2467.149597" xlink:href="#Ubuntu-105"/>
     <use x="2492.449585" xlink:href="#Ubuntu-111"/>
     <use x="2551.44957" xlink:href="#Ubuntu-110"/>
     <use x="2608.849564" xlink:href="#Ubuntu-115"/>
    </g>
   </g>
  </g>
 </g>
 <defs>
  <clipPath id="p9d53db8d3a">
   <rect height="319.37525" width="603.54875" x="28.49125" y="30.1335"/>
  </clipPath>
 </defs>
</svg>
